<?xml version="1.0" encoding="utf-8"?>
<!-- Generator: Adobe Illustrator 24.2.1, SVG Export Plug-In . SVG Version: 6.00 Build 0)  -->
<svg version="1.1" id="Слой_1" xmlns="http://www.w3.org/2000/svg" xmlns:xlink="http://www.w3.org/1999/xlink" x="0px" y="0px"
	 viewBox="0 0 390.3 416.8" style="enable-background:new 0 0 390.3 416.8;" xml:space="preserve">
<style type="text/css">
	.st0{fill:none;stroke:#000001;}
	.st1{font-family:'ArialMT';}
	.st2{font-size:12px;}
	.st3{font-size:8px;}
	.st4{font-size:5.7144px;}
	.st5{font-size:6.7108px;}
	.st6{font-size:3.4594px;}
	.st7{font-size:6.2768px;}
	.st8{font-size:5.332px;}
	.st9{font-size:11.2637px;}
	.st10{font-size:4.3276px;}
	.st11{font-size:5.6104px;}
	.st12{font-size:7.9989px;}
	.st13{fill:none;stroke:#000001;stroke-miterlimit:10;}
	.st14{font-size:6.818px;}
</style>
<line class="st0" x1="79.6" y1="103.9" x2="79.6" y2="47"/>
<line class="st0" x1="141.6" y1="305" x2="194.1" y2="305"/>
<line class="st0" x1="74.3" y1="338.9" x2="74.3" y2="361.9"/>
<line class="st0" x1="241.4" y1="361.9" x2="74.3" y2="361.9"/>
<line class="st0" x1="34.1" y1="338.9" x2="74.3" y2="338.9"/>
<line class="st0" x1="34.1" y1="320.7" x2="34.1" y2="338.9"/>
<line class="st0" x1="11.1" y1="320.7" x2="34.1" y2="320.7"/>
<line class="st0" x1="11.1" y1="269.7" x2="11.1" y2="320.7"/>
<g>
	<rect x="8.3" y="0.5" class="st0" width="35.2" height="46.5"/>
	<text transform="matrix(1 0 0 1 17.0296 28.4412)" class="st1 st2">102</text>
</g>
<g>
	<g>
		<rect x="43.4" y="12.5" class="st0" width="45.8" height="34.5"/>
	</g>
	<text transform="matrix(1 0 0 1 56.0292 33.9115)" class="st1 st2">101</text>
</g>
<g>
	<rect x="0.5" y="47" class="st0" width="33.6" height="44.4"/>
	<text transform="matrix(1 0 0 1 8.4999 75.9121)" class="st1 st2">103</text>
</g>
<g>
	<rect x="0.5" y="91.3" class="st0" width="33.6" height="45.5"/>
	<text transform="matrix(1 0 0 1 7.7943 116.7354)" class="st1 st2">104</text>
</g>
<g>
	<rect x="0.5" y="136.9" class="st0" width="33.6" height="44.5"/>
	<text transform="matrix(1 0 0 1 7.7943 163.0588)" class="st1 st2">105</text>
</g>
<g>
	<rect x="0.5" y="181.3" class="st0" width="33.6" height="44.8"/>
	<text transform="matrix(1 0 0 1 8.4999 207.7946)" class="st1 st2">106</text>
</g>
<g>
	<rect x="0.5" y="226.1" class="st0" width="33.6" height="43.5"/>
	<text transform="matrix(1 0 0 1 6.6175 251.2056)" class="st1 st2">107</text>
</g>
<g>
	<rect x="47.9" y="264.6" class="st0" width="60.2" height="40.4"/>
	<text transform="matrix(1 0 0 1 69.3235 289.0294)" class="st1 st2">125</text>
</g>
<g>
	<rect x="47.9" y="163.1" class="st0" width="22.6" height="23.6"/>
	<text transform="matrix(1 0 0 1 50.2354 178.5589)" class="st1 st2">117</text>
</g>
<g>
	<rect x="70.5" y="163.1" class="st0" width="25.5" height="23.6"/>
	<text transform="matrix(1 0 0 1 73.9413 178.5589)" class="st1 st2">114</text>
</g>
<g>
	<rect x="124.6" y="305" class="st0" width="16.9" height="20.4"/>
	<text transform="matrix(1 0 0 1 126.3823 317.4416)" class="st1 st3">130</text>
</g>
<g>
	<rect x="96" y="164.8" class="st0" width="12.1" height="21.8"/>
	<text transform="matrix(1 0 0 1 98.1471 176.1298)" class="st1 st4">112</text>
</g>
<g>
	<rect x="99.4" y="305" class="st0" width="14.1" height="9.4"/>
	<text transform="matrix(1 0 0 1 102.0736 312.3524)" class="st1 st5">СП</text>
</g>
<g>
	<rect x="47.9" y="103.9" class="st0" width="6.9" height="14"/>
	<text transform="matrix(1 0 0 1 48.7212 112.2025)" class="st1 st6">СП</text>
</g>
<g>
	<rect x="47.9" y="117.9" class="st0" width="14.1" height="10.2"/>
	<text transform="matrix(1 0 0 1 50.2354 125.2832)" class="st1 st7">WC</text>
</g>
<g>
	<rect x="54.8" y="103.9" class="st0" width="24.8" height="14"/>
	<text transform="matrix(1.004 0 0 1 62.5483 113.4415)" class="st1 st3">Ж</text>
</g>
<g>
	<rect x="99.4" y="314.4" class="st0" width="14.1" height="10.9"/>
	<text transform="matrix(1 0 0 1 102.0735 322.1071)" class="st1 st7">WC</text>
</g>
<g>
	<rect x="113.5" y="305" class="st0" width="11.1" height="20.4"/>
	<text transform="matrix(1 0 0 1 114.912 317.4416)" class="st1 st8">129</text>
</g>
<g>
	<rect x="47.9" y="186.6" class="st0" width="60.2" height="78"/>
	<text transform="matrix(1 0 0 1 61.794 230.618)" class="st1 st3">Спортзал</text>
</g>
<line class="st0" x1="96" y1="163.1" x2="96" y2="153.8"/>
<line class="st0" x1="94.5" y1="153.8" x2="96" y2="153.8"/>
<line class="st0" x1="318.7" y1="203.2" x2="318.7" y2="264.6"/>
<line class="st0" x1="334.1" y1="162.8" x2="356.3" y2="162.8"/>
<g>
	<rect x="356.3" y="148.3" class="st0" width="33" height="14.5"/>
	<text transform="matrix(1 0 0 1 365.2093 159.1983)" class="st1 st2">СП</text>
</g>
<g>
	<rect x="356.3" y="132.1" class="st0" width="33" height="16.2"/>
	<text transform="matrix(1.0654 0 0 1 363.0293 142.8038)" class="st1 st9">144</text>
</g>
<g>
	<rect x="273.9" y="132.1" class="st0" width="40.4" height="17.1"/>
	<text transform="matrix(1 0 0 1 282.7352 144.0297)" class="st1 st2">140</text>
</g>
<g>
	<rect x="244.8" y="162.8" class="st0" width="30.9" height="50.6"/>
	<text transform="matrix(1 0 0 1 251.0882 199.3231)" class="st1 st2">137</text>
</g>
<g>
	<rect x="244.8" y="213.4" class="st0" width="30.9" height="51.2"/>
	<text transform="matrix(1 0 0 1 252.4999 244.0295)" class="st1 st2">136</text>
</g>
<g>
	<rect x="244.8" y="264.6" class="st0" width="30.9" height="16.2"/>
	<text transform="matrix(1 0 0 1 250.0294 277.2062)" class="st1 st2">135</text>
</g>
<g>
	<rect x="194.1" y="305" class="st0" width="50.6" height="20.4"/>
	<text transform="matrix(1 0 0 1 209.353 319.853)" class="st1 st2">131</text>
</g>
<g>
	<rect x="287.5" y="181.5" class="st0" width="16.9" height="12"/>
	<text transform="matrix(1 0 0 1 290.794 189.9707)" class="st1 st3">СП</text>
</g>
<g>
	<rect x="244.8" y="280.9" class="st0" width="30.9" height="24.1"/>
	<text transform="matrix(1 0 0 1 248.6179 293.9703)" class="st1 st10">Бухгалтерия</text>
</g>
<g>
	<rect x="286.8" y="271.3" class="st0" width="12" height="14.3"/>
	<text transform="matrix(1 0 0 1 288.3233 279.8033)" class="st1 st11">WC</text>
</g>
<g>
	<rect x="257.1" y="132.1" class="st0" width="16.8" height="17.1"/>
	<text transform="matrix(1.0001 0 0 1 259.353 143.3243)" class="st1 st12">139</text>
</g>
<g>
	<text transform="matrix(1 0 0 1 278.6177 370.3825)" class="st1 st2">СП</text>
	<rect x="241.3" y="334.7" class="st13" width="86.2" height="64.9"/>
</g>
<g>
	<text transform="matrix(1 0 0 1 251.912 157.9113)" class="st1 st3">138</text>
	<path class="st0" d="M257.1,149.2v-17.1h-12.3v17.1 M257.1,149.2h18.5v13.6h-30.9v-13.6"/>
</g>
<g>
	<text transform="matrix(1 0 0 1 344.1471 361.8529)" class="st1 st3">Столовая</text>
	<polyline class="st0" points="327.4,334.7 286.8,334.7 286.8,305 389.8,305 389.8,334.7 	"/>
	<polyline class="st0" points="389.8,334.7 389.8,416.3 327.4,416.3 327.4,334.7 	"/>
</g>
<rect x="286.8" y="285.6" class="st0" width="40.6" height="19.4"/>
<g>
	<text transform="matrix(1 0 0 1 305.5369 277.642)" class="st1 st3">Ж</text>
	<polyline class="st0" points="298.8,271.3 286.8,271.3 286.8,264.6 298.8,264.6 	"/>
	<polyline class="st0" points="298.8,271.3 298.8,285.6 318.7,285.6 318.7,264.6 298.8,264.6 	"/>
</g>
<g>
	<text transform="matrix(1 0 0 1 307.7355 198.3529)" class="st1 st3">М</text>
	<polyline class="st0" points="304.4,203.2 287.5,203.2 287.5,193.5 304.4,193.5 	"/>
	<polyline class="st0" points="304.4,203.2 318.7,203.2 318.7,181.5 304.4,181.5 304.4,193.5 	"/>
</g>
<rect x="287.5" y="162.8" class="st0" width="46.6" height="18.7"/>
<g>
	<text transform="matrix(1 0 0 1 312.0296 101.912)" class="st1 st2">142</text>
	<polyline class="st0" points="334.1,117.8 345.6,117.8 345.6,79 301.3,79 301.3,117.8 	"/>
	<polyline class="st0" points="334.1,117.8 334.1,132.1 301.3,132.1 301.3,117.8 	"/>
</g>
<g>
	<text transform="matrix(1 0 0 1 357.5589 99.912)" class="st1 st2">143</text>
	<polyline class="st0" points="356.3,117.8 345.6,117.8 345.6,79 389.3,79 389.3,117.8 	"/>
	<polyline class="st0" points="389.3,117.8 389.3,132.1 356.3,132.1 356.3,117.8 	"/>
</g>
<g>
	<rect x="314.3" y="132.1" class="st0" width="13.1" height="17.1"/>
	<text transform="matrix(1 0 0 1 315.6764 142.4426)" class="st1 st14">141</text>
</g>
<rect x="47.9" y="135.8" class="st0" width="46.6" height="18"/>
<g>
	<text transform="matrix(1 0 0 1 66.3233 131.0296)" class="st1 st3">М</text>
	<polyline class="st0" points="62,135.8 47.9,135.8 47.9,128.1 62,128.1 	"/>
	<polyline class="st0" points="62,135.8 79.6,135.8 79.6,117.9 62,117.9 62,128.1 	"/>
</g>
<rect x="34.1" y="320.7" class="st0" width="35.2" height="18.2"/>
</svg>
