<?xml version="1.0" encoding="utf-8"?>
<!-- Generator: Adobe Illustrator 25.0.0, SVG Export Plug-In . SVG Version: 6.00 Build 0)  -->
<svg version="1.1" id="Слой_1" xmlns="http://www.w3.org/2000/svg" xmlns:xlink="http://www.w3.org/1999/xlink" x="0px" y="0px"
	 viewBox="0 0 390.3 416.8" style="enable-background:new 0 0 390.3 416.8;" xml:space="preserve">
<style type="text/css">
	.st0{fill:none;stroke:#000001;}
	.st1{font-family:'ArialMT';}
	.st2{font-size:12px;}
	.st3{font-family:'MyriadPro-Regular';}
	.st4{font-size:6.7108px;}
	.st5{font-size:3.4594px;}
	.st6{font-size:6.2768px;}
	.st7{font-size:8px;}
	.st8{font-size:5.332px;}
	.st9{font-size:11.2637px;}
	.st10{font-size:10.7013px;}
	.st11{font-size:5.6104px;}
	.st12{fill:none;stroke:#000001;stroke-miterlimit:10;}
	.st13{font-size:6.1988px;}
	.st14{fill:#FFFFFF;stroke:#000001;}
	.st15{fill:#FFFFFF;stroke:#000001;stroke-miterlimit:10;}
	.st16{fill:#FFFFFF;stroke:#000000;}
	.st17{font-size:9.4603px;}
</style>
<line class="st0" x1="79.6" y1="103.9" x2="79.6" y2="47"/>
<line class="st0" x1="141.6" y1="305" x2="194.1" y2="305"/>
<line class="st0" x1="74.3" y1="338.9" x2="74.3" y2="361.9"/>
<line class="st0" x1="241.4" y1="361.9" x2="74.3" y2="361.9"/>
<line class="st0" x1="34.1" y1="338.9" x2="74.3" y2="338.9"/>
<line class="st0" x1="34.1" y1="320.7" x2="34.1" y2="338.9"/>
<line class="st0" x1="11.1" y1="320.7" x2="34.1" y2="320.7"/>
<line class="st0" x1="11.1" y1="269.7" x2="11.1" y2="320.7"/>
<g>
	<rect x="8.3" y="0.5" class="st0" width="35.2" height="46.5"/>
	<text transform="matrix(1 0 0 1 17.0296 28.4412)" class="st1 st2">302</text>
</g>
<g>
	<g>
		<rect x="43.4" y="12.5" class="st0" width="45.8" height="34.5"/>
	</g>
	<text transform="matrix(1 0 0 1 56.0292 33.9115)" class="st1 st2">301</text>
</g>
<g>
	<rect x="0.5" y="47" class="st0" width="33.6" height="44.4"/>
	<text transform="matrix(1 0 0 1 8.4999 75.9121)" class="st1 st2">303</text>
</g>
<g>
	<rect x="0.5" y="91.3" class="st0" width="33.6" height="45.5"/>
	<text transform="matrix(1 0 0 1 7.7943 116.7354)" class="st1 st2">304</text>
</g>
<g>
	<rect x="0.5" y="136.9" class="st0" width="33.6" height="44.5"/>
	<text transform="matrix(1 0 0 1 7.7943 163.0588)" class="st1 st2">305</text>
</g>
<g>
	<rect x="0.5" y="181.3" class="st0" width="33.6" height="44.8"/>
	<text transform="matrix(1 0 0 1 8.4999 207.7946)" class="st1 st2">306</text>
</g>
<g>
	<rect x="0.5" y="226.1" class="st0" width="33.6" height="43.5"/>
	<text transform="matrix(1 0 0 1 6.6175 251.2056)" class="st1 st2">307</text>
</g>
<g>
	<rect x="47.9" y="153.8" class="st0" width="60.2" height="151.2"/>
	<text transform="matrix(1 0 0 1 55.7084 229.4)"><tspan x="0" y="0" class="st3 st2">Актовый  </tspan><tspan x="15.4" y="14.4" class="st3 st2">зал</tspan></text>
</g>
<g>
	<rect x="99.4" y="305" class="st0" width="14.1" height="9.4"/>
	<text transform="matrix(1 0 0 1 102.0736 312.3524)" class="st1 st4">СП</text>
</g>
<g>
	<rect x="47.9" y="103.9" class="st0" width="6.9" height="14"/>
	<text transform="matrix(1 0 0 1 48.7212 112.2025)" class="st1 st5">СП</text>
</g>
<g>
	<rect x="47.9" y="117.9" class="st0" width="14.1" height="10.2"/>
	<text transform="matrix(1 0 0 1 50.2354 125.2832)" class="st1 st6">WC</text>
</g>
<g>
	<rect x="54.8" y="103.9" class="st0" width="24.8" height="14"/>
	<text transform="matrix(1.004 0 0 1 62.5483 113.4414)" class="st1 st7">Ж</text>
</g>
<g>
	<rect x="99.4" y="314.4" class="st0" width="14.1" height="10.9"/>
	<text transform="matrix(1 0 0 1 102.0735 322.1071)" class="st1 st6">WC</text>
</g>
<g>
	<rect x="113.5" y="305" class="st0" width="11.1" height="20.4"/>
	<text transform="matrix(1 0 0 1 114.912 317.4416)" class="st1 st8">320</text>
</g>
<line class="st0" x1="94.5" y1="153.8" x2="96" y2="153.8"/>
<line class="st0" x1="318.7" y1="203.2" x2="318.7" y2="264.6"/>
<line class="st0" x1="334.1" y1="162.8" x2="356.3" y2="162.8"/>
<g>
	<rect x="356.3" y="148.3" class="st0" width="33" height="14.5"/>
	<text transform="matrix(1 0 0 1 365.2092 159.1983)" class="st1 st2">СП</text>
</g>
<g>
	<rect x="356.3" y="132.1" class="st0" width="33" height="16.2"/>
	<text transform="matrix(1.0654 0 0 1 363.0293 142.8037)" class="st1 st9">333</text>
</g>
<g>
	<rect x="244.8" y="162.8" class="st0" width="30.9" height="50.6"/>
	<text transform="matrix(1 0 0 1 251.8365 190.0664)" class="st1 st2">327</text>
</g>
<g>
	<rect x="244.8" y="213.4" class="st0" width="30.9" height="45.7"/>
	<text transform="matrix(1.1214 0 0 1 250.9502 239.3433)" class="st1 st10">326</text>
</g>
<g>
	<rect x="173.1" y="305" class="st0" width="71.6" height="20.4"/>
	<text transform="matrix(1 0 0 1 196.6211 318.4411)" class="st3 st2">318</text>
</g>
<g>
	<rect x="287.5" y="181.5" class="st0" width="16.9" height="12"/>
	<text transform="matrix(1 0 0 1 290.7939 189.9707)" class="st1 st7">СП</text>
</g>
<g>
	<rect x="286.8" y="271.3" class="st0" width="12" height="14.3"/>
	<text transform="matrix(1 0 0 1 288.3232 279.8033)" class="st1 st11">WC</text>
</g>
<g>
	<rect x="241.3" y="346.7" class="st12" width="45.5" height="52.9"/>
	<text transform="matrix(1 0 0 1 256.4702 378.2645)" class="st3 st2">323</text>
</g>
<g>
	<text transform="matrix(1 0 0 1 251.912 157.9113)" class="st1 st7">328</text>
	<path class="st0" d="M265.9,149.2v-17.1h-21.1v17.1 M266,149.2h9.7v13.6h-30.9v-13.6"/>
</g>
<rect x="286.8" y="305" class="st0" width="40.6" height="94.6"/>
<text transform="matrix(1 0 0 1 290.7939 352.9229)" class="st1 st13">Библиотека</text>
<rect x="286.8" y="285.6" class="st0" width="40.6" height="19.4"/>
<g>
	<text transform="matrix(1 0 0 1 305.5369 277.642)" class="st1 st7">Ж</text>
	<polyline class="st0" points="298.8,271.3 286.8,271.3 286.8,264.6 298.8,264.6 	"/>
	<polyline class="st0" points="298.8,271.3 298.8,285.6 318.7,285.6 318.7,264.6 298.8,264.6 	"/>
</g>
<g>
	<text transform="matrix(1 0 0 1 307.7355 198.3529)" class="st1 st7">М</text>
	<polyline class="st0" points="304.4,203.2 287.5,203.2 287.5,193.5 304.4,193.5 	"/>
	<polyline class="st0" points="304.4,203.2 318.7,203.2 318.7,181.5 304.4,181.5 304.4,193.5 	"/>
</g>
<rect x="287.5" y="162.8" class="st0" width="46.6" height="18.7"/>
<g>
	<rect x="265.9" y="132.1" class="st14" width="61.5" height="17.1"/>
	<text transform="matrix(1 0 0 1 286.4709 143.4199)" class="st1 st2">329</text>
</g>
<rect x="47.9" y="135.8" class="st0" width="46.6" height="18"/>
<g>
	<text transform="matrix(1 0 0 1 66.3233 131.0296)" class="st1 st7">М</text>
	<polyline class="st0" points="62,135.8 47.9,135.8 47.9,128.1 62,128.1 	"/>
	<polyline class="st0" points="62,135.8 79.6,135.8 79.6,117.9 62,117.9 62,128.1 	"/>
</g>
<rect x="34.1" y="320.7" class="st0" width="35.2" height="18.2"/>
<g>
	<rect x="99.4" y="346.7" class="st15" width="73.2" height="32.8"/>
</g>
<g>
	<rect x="172.6" y="346.7" class="st15" width="68.8" height="32.8"/>
</g>
<text transform="matrix(1 0 0 1 128.1936 367.2024)" class="st1 st2">316</text>
<text transform="matrix(1 0 0 1 195.1499 366.7748)" class="st1 st2">317</text>
<rect x="244.7" y="259.1" class="st0" width="31" height="45.9"/>
<text transform="matrix(1 0 0 1 251.2964 285.6)" class="st1 st2">325</text>
<g>
	<rect x="301.3" y="79" class="st16" width="32.8" height="53.1"/>
	<text transform="matrix(1 0 0 1 308.7501 108.6617)" class="st1 st2">330</text>
</g>
<g>
	<rect x="334.1" y="79" class="st16" width="22.2" height="38.8"/>
	<text transform="matrix(1 0 0 1 338.0896 102.0531)" class="st1 st17">331</text>
</g>
<g>
	<rect x="356.3" y="79" class="st16" width="33" height="53.1"/>
	<text transform="matrix(1 0 0 1 363.376 109.9853)" class="st1 st2">332</text>
</g>
<g>
	<rect x="124.6" y="305" class="st0" width="48.5" height="20.4"/>
	<text transform="matrix(0.9583 0 0 1 139.2158 319.8535)" class="st1 st2">319</text>
</g>
</svg>
